<?xml version="1.0" encoding="utf-8"?>
<!-- Generator: Adobe Illustrator 21.0.2, SVG Export Plug-In . SVG Version: 6.00 Build 0)  -->
<svg version="1.1" xmlns="http://www.w3.org/2000/svg" xmlns:xlink="http://www.w3.org/1999/xlink" x="0px" y="0px"
	 viewBox="0 0 1402 548" style="enable-background:new 0 0 1402 548;" xml:space="preserve">
<style type="text/css">
	.st0{display:none;}
	.st1{display:inline;}
	.st2{display:inline;fill:none;stroke:#00FF00;}
	.st3{display:inline;fill:none;stroke:#FFFF00;stroke-width:2;}
	.st4{display:inline;fill:#FFFFFF;stroke:#808080;}
	.st5{fill:#FFFFFF;stroke:#808080;}
	.st6{display:inline;fill:none;stroke:#808080;}
	.st7{fill:#212121;enable-background:new    ;}
	.st8{font-family:'OpenSans';}
	.st9{font-size:12px;}
	.st10{fill:none;stroke:#7F7F7F;stroke-width:2;}
	.st11{fill:none;stroke:#7F7F7F;stroke-width:3;}
	.st12{fill:#232323;}
	.st13{fill:#E9DF98;stroke:#E9DF98;stroke-width:3;}
	.st14{fill:#443300;enable-background:new    ;}
	.st15{font-family:'ArialMT';}
	.st16{font-size:24px;}
	.st17{fill:#A4C5C0;stroke:#A4C5C0;}
	.st18{fill:#333333;enable-background:new    ;}
	.st19{font-size:16px;}
</style>
<g id="kity_svg_6">
	<g id="kity_g_14" class="st0">
		<path id="kity_path_15" class="st1" d="M1041-536.2h225v20h-225V-536.2z"/>
		<path id="kity_path_16" class="st2" d="M1041-516.2h225"/>
	</g>
	<g id="kity_g_12" class="st0">
		<path id="kity_path_13" class="st3" d="M1140-391.2h40c2.8,0,5,2.2,5,5v12c0,2.8-2.2,5-5,5h-40c-2.8,0-5-2.2-5-5v-12
			C1135-389,1137.2-391.2,1140-391.2z"/>
	</g>
	<g id="node_expander6" class="st0">
		<path id="kity_path_206" class="st4" d="M915-289.2c0,3.3-2.7,6-6,6s-6-2.7-6-6s2.7-6,6-6S915-292.5,915-289.2"/>
		<path id="kity_path_207" class="st5" d="M-43.5-648.7"/>
	</g>
	<g id="node_expander7" class="st0">
		<path id="kity_path_209" class="st4" d="M915-237.2c0,3.3-2.7,6-6,6s-6-2.7-6-6s2.7-6,6-6S915-240.5,915-237.2"/>
		<path id="kity_path_210" class="st5" d="M-43.5-648.7"/>
	</g>
	<g id="node_expander8" class="st0">
		<path id="kity_path_212" class="st4" d="M915-185.2c0,3.3-2.7,6-6,6s-6-2.7-6-6l0,0c0-3.3,2.7-6,6-6S915-188.5,915-185.2"/>
		<path id="kity_path_213" class="st5" d="M-43.5-648.7"/>
	</g>
	<g id="node_expander9" class="st0">
		<path id="kity_path_215" class="st4" d="M915-133.2c0,3.3-2.7,6-6,6s-6-2.7-6-6s2.7-6,6-6S915-136.5,915-133.2"/>
		<path id="kity_path_216" class="st5" d="M-43.5-648.7"/>
	</g>
	<g id="node_expander33" class="st0">
		<path id="kity_path_415" class="st4" d="M1235-561.2c0,3.3-2.7,6-6,6s-6-2.7-6-6c0-3.3,2.7-6,6-6S1235-564.5,1235-561.2"/>
		<path id="kity_path_416" class="st5" d="M-43.5-648.7"/>
	</g>
	<g id="node_expander34" class="st0">
		<path id="kity_path_418" class="st4" d="M1235-509.2c0,3.3-2.7,6-6,6s-6-2.7-6-6c0-3.3,2.7-6,6-6S1235-512.5,1235-509.2"/>
		<path id="kity_path_419" class="st5" d="M-43.5-648.7"/>
	</g>
	<g id="node_expander35" class="st0">
		<path id="kity_path_421" class="st4" d="M1235-457.2c0,3.3-2.7,6-6,6s-6-2.7-6-6c0-3.3,2.7-6,6-6S1235-460.5,1235-457.2"/>
		<path id="kity_path_422" class="st5" d="M-43.5-648.7"/>
	</g>
	<g id="node_expander36" class="st0">
		<path id="kity_path_424" class="st4" d="M1235-405.2c0,3.3-2.7,6-6,6s-6-2.7-6-6c0-3.3,2.7-6,6-6S1235-408.5,1235-405.2"/>
		<path id="kity_path_425" class="st5" d="M-43.5-648.7"/>
	</g>
	<g id="node_expander37" class="st0">
		<path id="kity_path_427" class="st4" d="M1235-353.2c0,3.3-2.7,6-6,6s-6-2.7-6-6s2.7-6,6-6S1235-356.5,1235-353.2"/>
		<path id="kity_path_428" class="st5" d="M-43.5-648.7"/>
	</g>
	<g id="node_expander38" class="st0">
		<path id="kity_path_430" class="st4" d="M1235-301.2c0,3.3-2.7,6-6,6s-6-2.7-6-6s2.7-6,6-6S1235-304.5,1235-301.2"/>
		<path id="kity_path_431" class="st5" d="M-43.5-648.7"/>
	</g>
	<g id="node_expander39" class="st0">
		<path id="kity_path_433" class="st4" d="M1235-249.2c0,3.3-2.7,6-6,6s-6-2.7-6-6s2.7-6,6-6S1235-252.5,1235-249.2"/>
		<path id="kity_path_434" class="st5" d="M-43.5-648.7"/>
	</g>
	<g id="node_expander40" class="st0">
		<path id="kity_path_436" class="st4" d="M1235-197.2c0,3.3-2.7,6-6,6s-6-2.7-6-6s2.7-6,6-6S1235-200.5,1235-197.2"/>
		<path id="kity_path_437" class="st5" d="M-43.5-648.7"/>
	</g>
	<g id="node_expander41" class="st0">
		<path id="kity_path_439" class="st4" d="M1235-145.2c0,3.3-2.7,6-6,6s-6-2.7-6-6s2.7-6,6-6S1235-148.5,1235-145.2"/>
		<path id="kity_path_440" class="st5" d="M-43.5-648.7"/>
	</g>
	<g id="node_expander13" class="st0">
		<path id="kity_path_227" class="st4" d="M289-406.2c0,3.3-2.7,6-6,6s-6-2.7-6-6c0-3.3,2.7-6,6-6S289-409.5,289-406.2"/>
		<path id="kity_path_228" class="st5" d="M-43.5-648.7"/>
	</g>
	<g id="node_expander14" class="st0">
		<path id="kity_path_230" class="st4" d="M289-354.2c0,3.3-2.7,6-6,6s-6-2.7-6-6s2.7-6,6-6S289-357.5,289-354.2"/>
		<path id="kity_path_231" class="st5" d="M-43.5-648.7"/>
	</g>
	<g id="node_expander15" class="st0">
		<path id="kity_path_233" class="st4" d="M289-302.2c0,3.3-2.7,6-6,6s-6-2.7-6-6s2.7-6,6-6S289-305.5,289-302.2"/>
		<path id="kity_path_234" class="st5" d="M-43.5-648.7"/>
	</g>
	<g id="node_expander16" class="st0">
		<path id="kity_path_236" class="st4" d="M289-250.2c0,3.3-2.7,6-6,6s-6-2.7-6-6s2.7-6,6-6S289-253.5,289-250.2"/>
		<path id="kity_path_237" class="st5" d="M-43.5-648.7"/>
	</g>
	<g id="node_expander17" class="st0">
		<path id="kity_path_239" class="st4" d="M289-198.2c0,3.3-2.7,6-6,6s-6-2.7-6-6l0,0c0-3.3,2.7-6,6-6S289-201.5,289-198.2"/>
		<path id="kity_path_240" class="st5" d="M-43.5-648.7"/>
	</g>
	<g id="node_expander18" class="st0">
		<path id="kity_path_242" class="st4" d="M289-146.2c0,3.3-2.7,6-6,6s-6-2.7-6-6s2.7-6,6-6S289-149.5,289-146.2"/>
		<path id="kity_path_243" class="st5" d="M-43.5-648.7"/>
	</g>
	<g id="node_expander23" class="st0">
		<path id="kity_path_257" class="st4" d="M506-616.2c0,3.3-2.7,6-6,6s-6-2.7-6-6c0-3.3,2.7-6,6-6S506-619.5,506-616.2"/>
		<path id="kity_path_258" class="st5" d="M-43.5-648.7"/>
	</g>
	<g id="node_expander24" class="st0">
		<path id="kity_path_260" class="st4" d="M506-564.2c0,3.3-2.7,6-6,6s-6-2.7-6-6c0-3.3,2.7-6,6-6S506-567.5,506-564.2"/>
		<path id="kity_path_261" class="st5" d="M-43.5-648.7"/>
	</g>
	<g id="node_expander25" class="st0">
		<path id="kity_path_263" class="st4" d="M506-512.2c0,3.3-2.7,6-6,6s-6-2.7-6-6c0-3.3,2.7-6,6-6S506-515.5,506-512.2"/>
		<path id="kity_path_264" class="st5" d="M-43.5-648.7"/>
	</g>
	<g id="node_expander26" class="st0">
		<path id="kity_path_266" class="st4" d="M506-460.2c0,3.3-2.7,6-6,6s-6-2.7-6-6c0-3.3,2.7-6,6-6S506-463.5,506-460.2"/>
		<path id="kity_path_267" class="st5" d="M-43.5-648.7"/>
	</g>
	<g id="node_expander27" class="st0">
		<path id="kity_path_269" class="st4" d="M506-408.2c0,3.3-2.7,6-6,6s-6-2.7-6-6c0-3.3,2.7-6,6-6S506-411.5,506-408.2L506-408.2"/>
		<path id="kity_path_270" class="st5" d="M-43.5-648.7"/>
	</g>
	<g id="node_expander28" class="st0">
		<path id="kity_path_272" class="st4" d="M506-356.2c0,3.3-2.7,6-6,6s-6-2.7-6-6s2.7-6,6-6S506-359.5,506-356.2"/>
		<path id="kity_path_273" class="st5" d="M-43.5-648.7"/>
	</g>
	<g id="node_expander29" class="st0">
		<path id="kity_path_275" class="st4" d="M506-304.2c0,3.3-2.7,6-6,6s-6-2.7-6-6s2.7-6,6-6S506-307.5,506-304.2"/>
		<path id="kity_path_276" class="st5" d="M-43.5-648.7"/>
	</g>
	<g id="node_expander30" class="st0">
		<path id="kity_path_278" class="st4" d="M506-252.2c0,3.3-2.7,6-6,6s-6-2.7-6-6s2.7-6,6-6S506-255.5,506-252.2"/>
		<path id="kity_path_279" class="st6" d="M495.5-252.2h9"/>
	</g>
	<g id="node_expander31" class="st0">
		<path id="kity_path_281" class="st4" d="M506-200.2c0,3.3-2.7,6-6,6s-6-2.7-6-6s2.7-6,6-6S506-203.5,506-200.2"/>
		<path id="kity_path_282" class="st5" d="M-43.5-648.7"/>
	</g>
</g>
<g id="names">
	<g>
		<g id="node_text7">
			<text id="kity_text_105" text-rendering="inherit" transform="matrix(1 0 0 1 979 350.2052)" class="st7 st8 st9">Staying in their own rooms</text>
		</g>
		<g id="node_text8">
			<text id="kity_text_107" text-rendering="inherit" transform="matrix(1 0 0 1 979 402.2052)" class="st7 st8 st9">Watching TV</text>
		</g>
		<g id="node_text9">
			<text id="kity_text_109" text-rendering="inherit" transform="matrix(1 0 0 1 979 454.2052)" class="st7 st8 st9">Having a meal is the most regular activity</text>
		</g>
		<g id="node_text10">
			<text id="kity_text_111" text-rendering="inherit" transform="matrix(1 0 0 1 979 506.2052)" class="st7 st8 st9">Don&apos;t interact with each other much</text>
		</g>
		<g id="node_text34">
			<text id="kity_text_385" text-rendering="inherit" transform="matrix(1 0 0 1 1299 78.2052)" class="st7 st8 st9">Dial telephone</text>
		</g>
		<g id="node_text35">
			<text id="kity_text_387" text-rendering="inherit" transform="matrix(1 0 0 1 1299 130.2052)" class="st7 st8 st9">Phonograph</text>
		</g>
		<g id="node_text36">
			<text id="kity_text_389" text-rendering="inherit" transform="matrix(1 0 0 1 1299 182.2052)" class="st7 st8 st9">Writing</text>
		</g>
		<g id="node_text37">
			<text id="kity_text_391" text-rendering="inherit" transform="matrix(1 0 0 1 1299 234.2052)" class="st7 st8 st9">Cards</text>
		</g>
		<g id="node_text38">
			<text id="kity_text_393" text-rendering="inherit" transform="matrix(1 0 0 1 1299 286.2052)" class="st7 st8 st9">Pen</text>
		</g>
		<g id="node_text39">
			<text id="kity_text_395" text-rendering="inherit" transform="matrix(1 0 0 1 1299 338.2052)" class="st7 st8 st9">Dairy</text>
		</g>
		<g id="node_text40">
			<text id="kity_text_397" text-rendering="inherit" transform="matrix(1 0 0 1 1299 390.2052)" class="st7 st8 st9">Jewellery</text>
		</g>
		<g id="node_text41">
			<text id="kity_text_399" text-rendering="inherit" transform="matrix(1 0 0 1 1299 442.2052)" class="st7 st8 st9">Pet</text>
		</g>
		<g id="node_text42">
			<text id="kity_text_401" text-rendering="inherit" transform="matrix(1 0 0 1 1299 494.2052)" class="st7 st8 st9">Book</text>
		</g>
		<g id="node_text14">
			<text id="kity_text_119" text-rendering="inherit" transform="matrix(1 0 0 1 283 233.2052)" class="st7 st8 st9">Lonely</text>
		</g>
		<g id="node_text15">
			<text id="kity_text_121" text-rendering="inherit" transform="matrix(1 0 0 1 243 285.2052)" class="st7 st8 st9">Memory Lose</text>
		</g>
		<g id="node_text16">
			<text id="kity_text_123" text-rendering="inherit" transform="matrix(1 0 0 1 249 337.2052)" class="st7 st8 st9">Hearing lose</text>
		</g>
		<g id="node_text17">
			<text id="kity_text_125" text-rendering="inherit" transform="matrix(1 0 0 1 258 390.2054)" class="st7 st8 st9">Vision lose</text>
		</g>
		<g id="node_text18">
			<text id="kity_text_127" text-rendering="inherit" transform="matrix(1 0 0 1 171 441.2052)" class="st7 st8 st9">Fine control deterioration </text>
		</g>
		<g id="node_text19">
			<text id="kity_text_129" text-rendering="inherit" transform="matrix(1 0 0 1 41 493.2052)" class="st7 st8 st9">Don&apos;t have a daily structure, nothing much to do</text>
		</g>
		<g id="node_text24">
			<text id="kity_text_139" text-rendering="inherit" transform="matrix(1 0 0 1 515 23.2052)" class="st7 st8 st9">Pills</text>
		</g>
		<g id="node_text25">
			<text id="kity_text_141" text-rendering="inherit" transform="matrix(1 0 0 1 472 75.2052)" class="st7 st8 st9">Wheelchair</text>
		</g>
		<g id="node_text26">
			<text id="kity_text_143" text-rendering="inherit" transform="matrix(1 0 0 1 459 127.2052)" class="st7 st8 st9">Alarm system</text>
		</g>
		<g id="node_text27">
			<text id="kity_text_145" text-rendering="inherit" transform="matrix(1 0 0 1 495 179.2052)" class="st7 st8 st9">Glasses</text>
		</g>
		<g id="node_text28">
			<text id="kity_text_147" text-rendering="inherit" transform="matrix(1 0 0 1 497 231.2052)" class="st7 st8 st9">Walker</text>
		</g>
		<g id="node_text29">
			<text id="kity_text_149" text-rendering="inherit" transform="matrix(1 0 0 1 521 283.2052)" class="st7 st8 st9">TV</text>
		</g>
		<g id="node_text30">
			<text id="kity_text_151" text-rendering="inherit" transform="matrix(1 0 0 1 505 335.2052)" class="st7 st8 st9">Cards</text>
		</g>
		<g id="node_text31">
			<text id="kity_text_153" text-rendering="inherit" transform="matrix(1 0 0 1 495 387.2052)" class="st7 st8 st9">Puzzels</text>
		</g>
		<g id="node_text32">
			<text id="kity_text_155" text-rendering="inherit" transform="matrix(1 0 0 1 508 439.2052)" class="st7 st8 st9">Book</text>
		</g>
	</g>
</g>
<g id="lines">
	<g>
		<path id="kity_path_597_1_" class="st10" d="M371.5,354.9c-15,0-15-116-30-116h-68"/>
		<path id="kity_path_598_1_" class="st10" d="M371.5,354.9c-15,0-15-64-30-64h-108"/>
		<path id="kity_path_599_1_" class="st10" d="M371.5,354.9c-15,0-15-12-30-12h-102"/>
		<path id="kity_path_600_1_" class="st10" d="M371.5,354.9c-15,0-15,40-30,40h-93"/>
		<path id="kity_path_601_1_" class="st10" d="M371.5,354.9c-15,0-15,92-30,92h-180"/>
		<path id="kity_path_602_1_" class="st10" d="M371.5,354.9c-15,0-15,144-30,144h-310"/>
		<path id="kity_path_612_1_" class="st10" d="M588.5,222.9c-15,0-15-194-30-194h-53"/>
		<path id="kity_path_613_1_" class="st10" d="M588.5,222.9c-15,0-15-142-30-142h-96"/>
		<path id="kity_path_614_1_" class="st10" d="M588.5,222.9c-15,0-15-90-30-90h-109"/>
		<path id="kity_path_615_1_" class="st10" d="M588.5,222.9c-15,0-15-38-30-38h-73"/>
		<path id="kity_path_616_1_" class="st10" d="M588.5,222.9c-15,0-15,14-30,14h-71"/>
		<path id="kity_path_617_1_" class="st10" d="M588.5,222.9c-15,0-15,66-30,66h-47"/>
		<path id="kity_path_618_1_" class="st10" d="M588.5,222.9c-15,0-15,118-30,118h-63"/>
		<path id="kity_path_619_1_" class="st10" d="M588.5,222.9c-15,0-15,170-30,170h-73"/>
		<path id="kity_path_620_1_" class="st10" d="M588.5,222.9c-15,0-15,222-30,222h-60"/>
		<path id="kity_path_41_1_" class="st11" d="M714.9,354.4c-34.9,33-48.6,59-12.9,65"/>
		<path id="kity_path_55_1_" class="st11" d="M714.9,354.4c-21.4,24.3-94.5,38.5-228.9,0"/>
		<path id="kity_path_75_1_" class="st11" d="M746.5,331.4c0-60.2-6.9-109-15.5-109"/>
		<path id="kity_path_365_1_" class="st11" d="M746.2,310.9c0-29.8,56.5-33.5,125.8-33.5"/>
		<path id="kity_path_563_1_" class="st10" d="M929.5,419.9c15,0,15-64,30-64h185"/>
		<path id="kity_path_564_1_" class="st10" d="M929.5,419.9c15,0,15-12,30-12h105"/>
		<path id="kity_path_565_1_" class="st10" d="M929.5,419.9c15,0,15,40,30,40h268"/>
		<path id="kity_path_566_1_" class="st10" d="M929.5,419.9c15,0,15,92,30,92h237"/>
		<path id="kity_path_567_1_" class="st10" d="M1249.5,277.9c15,0,15-194,30-194h114"/>
		<path id="kity_path_568_1_" class="st10" d="M1249.5,277.9c15,0,15-142,30-142h101"/>
		<path id="kity_path_569_1_" class="st10" d="M1249.5,277.9c15,0,15-90,30-90h74"/>
		<path id="kity_path_570_1_" class="st10" d="M1249.5,277.9c15,0,15-38,30-38h63"/>
		<path id="kity_path_571_1_" class="st10" d="M1249.5,277.9c15,0,15,14,30,14h52"/>
		<path id="kity_path_572_1_" class="st10" d="M1249.5,277.9c15,0,15,66,30,66h61"/>
		<path id="kity_path_573_1_" class="st10" d="M1249.5,277.9c15,0,15,118,30,118h84"/>
		<path id="kity_path_574_1_" class="st10" d="M1249.5,277.9c15,0,15,170,30,170h49"/>
		<path id="kity_path_575_1_" class="st10" d="M1249.5,277.9c15,0,15,222,30,222h60"/>
		<g>
			<g id="node_expander22_1_">
				<path id="kity_path_254_1_" class="st12" d="M371,354.4c0,3.3-2.7,6-6,6s-6-2.7-6-6s2.7-6,6-6S371,351.1,371,354.4"/>
				<path id="kity_path_255_1_" class="st12" d="M360.5,354.4h9"/>
			</g>
			<g id="node_expander12_1_">
				<path id="kity_path_224_1_" class="st12" d="M704,419.4c0,3.3-2.7,6-6,6s-6-2.7-6-6s2.7-6,6-6S704,416.1,704,419.4L704,419.4"/>
				<path id="kity_path_225_1_" class="st12" d="M693.5,419.4h9"/>
			</g>
			<g id="node_expander32_1_">
				<path id="kity_path_284_1_" class="st12" d="M739.8,223.1c0,3-2.4,5.5-5.5,5.5s-5.5-2.4-5.5-5.5c0-3,2.4-5.5,5.5-5.5
					S739.8,220.1,739.8,223.1L739.8,223.1"/>
				<path id="kity_path_285_1_" class="st12" d="M730.2,223.1h8.2"/>
			</g>
			<g id="node_expander42_1_">
				<path id="kity_path_442_1_" class="st12" d="M1261,277.4c0,3.3-2.7,6-6,6s-6-2.7-6-6s2.7-6,6-6S1261,274.1,1261,277.4"/>
				<path id="kity_path_443_1_" class="st12" d="M1250.5,277.4h9"/>
			</g>
		</g>
	</g>
</g>
<g id="branch_names">
	<path id="node_outline1" class="st13" d="M628,304.4h237c14.9,0,27,12.1,27,27l0,0l0,0c0,14.9-12.1,27-27,27l0,0H628
		c-14.9,0-27-12.1-27-27l0,0l0,0C601,316.5,613.1,304.4,628,304.4L628,304.4z"/>
	<g id="node_text1">
		<text id="kity_text_22" text-rendering="inherit" transform="matrix(1 0 0 1 626 339.0051)" class="st14 st15 st16">Self-reporting device</text>
	</g>
	<path id="node_outline13" class="st17" d="M714,405.4h205c5.5,0,10,4.5,10,10v8c0,5.5-4.5,10-10,10H714c-5.5,0-10-4.5-10-10v-8
		C704,409.9,708.5,405.4,714,405.4z"/>
	<g id="node_text13">
		<text id="kity_text_117" text-rendering="inherit" transform="matrix(1 0 0 1 724 421.8048)" class="st18 st15 st19">Elderly life in Berckelhof</text>
	</g>
	<path id="node_outline23" class="st17" d="M381,340.4h93c5.5,0,10,4.5,10,10v8c0,5.5-4.5,10-10,10h-93c-5.5,0-10-4.5-10-10v-8
		C371,344.9,375.5,340.4,381,340.4z"/>
	<g id="node_text23">
		<text id="kity_text_137" text-rendering="inherit" transform="matrix(1 0 0 1 391 356.8048)" class="st18 st15 st19">Being old</text>
	</g>
	<path id="node_outline33" class="st17" d="M598,208.4h121c5.5,0,10,4.5,10,10v8c0,5.5-4.5,10-10,10H598c-5.5,0-10-4.5-10-10v-8
		C588,212.9,592.5,208.4,598,208.4z"/>
	<g id="node_text33">
		<text id="kity_text_157" text-rendering="inherit" transform="matrix(1 0 0 1 608 226.805)" class="st18 st15 st19">Daily Objects</text>
	</g>
	<path id="node_outline43" class="st17" d="M884,263.4h355c5.5,0,10,4.5,10,10v8c0,5.5-4.5,10-10,10H884c-5.5,0-10-4.5-10-10v-8
		C874,267.9,878.5,263.4,884,263.4z"/>
	<g id="node_text43">
		<text id="kity_text_403" text-rendering="inherit" transform="matrix(1 0 0 1 894 279.8048)" class="st18 st15 st19">Elements that the elderly would understand</text>
	</g>
</g>
</svg>
